<svg width="400" height="220" viewBox="0 0 400 220" fill="none" xmlns="http://www.w3.org/2000/svg">
  <rect width="400" height="220" rx="24" fill="#0F172A"/>
  <path d="M60 152C74 138 98 126 134 126H266C302 126 326 138 340 152" stroke="#FFFFFF" stroke-width="8" stroke-linecap="round"/>
  <path d="M88 152V137C88 120 101 106 116 106H284C299 106 312 120 312 137V152" stroke="#FFFFFF" stroke-width="8" stroke-linejoin="round"/>
  <path d="M116 106C108 93 96 72 112 62C127 52 158 50 188 50C218 50 249 52 264 62C280 72 268 93 260 106" stroke="#FFFFFF" stroke-width="8" stroke-linecap="round"/>
  <path d="M86 152L78 165H102" stroke="#FFFFFF" stroke-width="8" stroke-linecap="round"/>
  <path d="M314 152L322 165H298" stroke="#FFFFFF" stroke-width="8" stroke-linecap="round"/>
  <circle cx="120" cy="165" r="14" fill="#FFFFFF"/>
  <circle cx="280" cy="165" r="14" fill="#FFFFFF"/>
  <path d="M138 110H262" stroke="#FFFFFF" stroke-width="6" stroke-linecap="round"/>
  <path d="M94 150H306" stroke="#FFFFFF" stroke-width="6" stroke-linecap="round"/>
  <path d="M123 103L116 93" stroke="#FFFFFF" stroke-width="6" stroke-linecap="round"/>
  <path d="M283 103L290 93" stroke="#FFFFFF" stroke-width="6" stroke-linecap="round"/>
  <text x="200" y="190" fill="#FFFFFF" font-size="24" font-family="Poppins, sans-serif" text-anchor="middle">BMW X5</text>
</svg>
