<svg width="400" height="220" viewBox="0 0 400 220" fill="none" xmlns="http://www.w3.org/2000/svg">
  <rect width="400" height="220" rx="24" fill="#1E293B"/>
  <path d="M62 150C76 136 100 124 136 124H264C300 124 324 136 338 150" stroke="#FFFFFF" stroke-width="8" stroke-linecap="round"/>
  <path d="M90 150V135C90 118 103 104 118 104H282C297 104 310 118 310 135V150" stroke="#FFFFFF" stroke-width="8" stroke-linejoin="round"/>
  <path d="M118 104C110 91 98 70 114 60C129 50 160 48 190 48C220 48 251 50 266 60C282 70 270 91 262 104" stroke="#FFFFFF" stroke-width="8" stroke-linecap="round"/>
  <path d="M88 150L80 163H104" stroke="#FFFFFF" stroke-width="8" stroke-linecap="round"/>
  <path d="M312 150L320 163H296" stroke="#FFFFFF" stroke-width="8" stroke-linecap="round"/>
  <circle cx="122" cy="163" r="14" fill="#FFFFFF"/>
  <circle cx="278" cy="163" r="14" fill="#FFFFFF"/>
  <path d="M140 108H260" stroke="#FFFFFF" stroke-width="6" stroke-linecap="round"/>
  <path d="M96 148H304" stroke="#FFFFFF" stroke-width="6" stroke-linecap="round"/>
  <path d="M125 101L118 91" stroke="#FFFFFF" stroke-width="6" stroke-linecap="round"/>
  <path d="M275 101L282 91" stroke="#FFFFFF" stroke-width="6" stroke-linecap="round"/>
  <text x="200" y="190" fill="#FFFFFF" font-size="24" font-family="Poppins, sans-serif" text-anchor="middle">BMW X3</text>
</svg>
