<svg width="400" height="220" viewBox="0 0 400 220" fill="none" xmlns="http://www.w3.org/2000/svg">
  <rect width="400" height="220" rx="24" fill="#0F172A"/>
  <path d="M62 154C76 140 100 128 134 128H266C300 128 324 140 338 154" stroke="#FFFFFF" stroke-width="8" stroke-linecap="round"/>
  <path d="M90 154V138C90 121 103 106 118 106H282C297 106 310 121 310 138V154" stroke="#FFFFFF" stroke-width="8" stroke-linejoin="round"/>
  <path d="M118 106C110 93 98 72 114 62C129 52 160 50 190 50C220 50 251 52 266 62C282 72 270 93 262 106" stroke="#FFFFFF" stroke-width="8" stroke-linecap="round"/>
  <path d="M88 154L80 167H104" stroke="#FFFFFF" stroke-width="8" stroke-linecap="round"/>
  <path d="M312 154L320 167H296" stroke="#FFFFFF" stroke-width="8" stroke-linecap="round"/>
  <circle cx="122" cy="167" r="14" fill="#FFFFFF"/>
  <circle cx="278" cy="167" r="14" fill="#FFFFFF"/>
  <path d="M140 110H260" stroke="#FFFFFF" stroke-width="6" stroke-linecap="round"/>
  <path d="M96 150H304" stroke="#FFFFFF" stroke-width="6" stroke-linecap="round"/>
  <path d="M125 103L118 93" stroke="#FFFFFF" stroke-width="6" stroke-linecap="round"/>
  <path d="M275 103L282 93" stroke="#FFFFFF" stroke-width="6" stroke-linecap="round"/>
  <text x="200" y="190" fill="#FFFFFF" font-size="24" font-family="Poppins, sans-serif" text-anchor="middle">BMW 5 Series</text>
</svg>
